<svg width="66" height="32" fill="none" xmlns="http://www.w3.org/2000/svg"><path d="M65.356 0h-5.498a.644.644 0 00-.644.644v18.693a.644.644 0 00.644.644h5.498a.644.644 0 00.644-.644V.644A.644.644 0 0065.356 0zM32.025 0h-5.499a.644.644 0 00-.644.644v18.693a.644.644 0 00.644.644h5.499a.644.644 0 00.643-.644V.644A.644.644 0 0032.025 0zm23.74 0h-5.753a1.287 1.287 0 00-1.042.531l-3.024 4.173L42.92.53A1.287 1.287 0 0041.878 0h-5.764a.637.637 0 00-.336.096.63.63 0 00-.31.599c.01.118.052.231.121.327l6.508 8.969-6.508 8.969a.641.641 0 00.52 1.02h5.753a1.289 1.289 0 001.043-.53l3.025-4.173 3.025 4.173a1.287 1.287 0 001.041.53h5.76a.644.644 0 00.52-1.02l-6.497-8.97 6.508-8.969a.64.64 0 00-.048-.815.645.645 0 00-.473-.207zM14.216.498l-3.6 4.64L7.01.497A1.293 1.293 0 005.99 0H.645A.645.645 0 000 .644v18.693a.645.645 0 00.645.644h5.337a.645.645 0 00.643-.644V9.753l3.49 4.312a.64.64 0 00.777.175.64.64 0 00.223-.175l3.49-4.312v9.584a.646.646 0 00.644.644h5.5a.646.646 0 00.645-.644V.644A.646.646 0 0020.749 0h-5.513a1.294 1.294 0 00-1.02.498z" fill="#000"/><path d="M30.688 30.46v-5.498a.644.644 0 00-.644-.644H11.351a.644.644 0 00-.644.643v5.5a.644.644 0 00.644.643h18.693a.644.644 0 00.644-.644z" fill="#E5004D"/><path d="M55.127 30.46v-5.498a.644.644 0 00-.643-.644H35.79a.644.644 0 00-.643.643v5.5a.644.644 0 00.643.643h18.694a.644.644 0 00.643-.644z" fill="#F5A000"/></svg>