<?xml version="1.0" encoding="utf-8"?>
<svg xmlns="http://www.w3.org/2000/svg"
	xmlns:xlink="http://www.w3.org/1999/xlink"
	width="442px" height="146px" viewBox="0 0 221 73">
<path fillRule="evenodd" d="M 219.5 63.26C 218.5 65.45 217.18 67.27 215.55 68.72 213.91 70.17 212.08 71.27 210.05 72.01 208.79 72.47 207.52 72.77 206.25 72.94 206.25 72.94 206.25 62.44 206.25 62.44 207.16 62.15 207.99 61.69 208.75 61.03 210.11 59.85 210.8 58.02 210.8 55.52 210.8 55.52 210.8 17.48 210.8 17.48 210.8 14.99 210.11 13.15 208.75 11.97 207.99 11.32 207.16 10.85 206.25 10.56 206.25 10.56 206.25 0.06 206.25 0.06 207.52 0.23 208.79 0.53 210.05 0.99 212.08 1.73 213.91 2.83 215.55 4.28 217.18 5.73 218.5 7.57 219.5 9.79 220.5 12.02 221 14.58 221 17.48 221 17.48 221 55.52 221 55.52 221 58.49 220.5 61.07 219.5 63.26ZM 192.24 68.72C 190.6 67.27 189.29 65.45 188.29 63.26 187.29 61.07 186.79 58.49 186.79 55.52 186.79 55.52 186.79 17.48 186.79 17.48 186.79 14.58 187.29 12.02 188.29 9.79 189.29 7.57 190.6 5.73 192.24 4.28 193.87 2.83 195.71 1.73 197.74 0.99 199 0.53 200.27 0.23 201.54 0.06 201.54 0.06 201.54 10.56 201.54 10.56 200.63 10.85 199.8 11.31 199.04 11.97 197.67 13.15 196.99 14.99 196.99 17.48 196.99 17.48 196.99 55.52 196.99 55.52 196.99 58.02 197.67 59.85 199.04 61.03 199.8 61.69 200.63 62.15 201.54 62.44 201.54 62.44 201.54 72.94 201.54 72.94 200.27 72.77 199 72.47 197.74 72.01 195.71 71.27 193.87 70.17 192.24 68.72ZM 176.82 68.72C 175.18 70.17 173.35 71.27 171.32 72.01 170.19 72.42 169.06 72.71 167.93 72.89 167.93 72.89 167.93 62.3 167.93 62.3 168.68 62.01 169.37 61.59 170.02 61.03 171.38 59.85 172.07 58.02 172.07 55.52 172.07 55.52 172.07 17.48 172.07 17.48 172.07 14.99 171.38 13.15 170.02 11.97 169.37 11.41 168.68 11 167.93 10.7 167.93 10.7 167.93 0.11 167.93 0.11 169.06 0.29 170.19 0.58 171.32 0.99 173.35 1.73 175.18 2.83 176.82 4.28 178.45 5.73 179.77 7.57 180.77 9.79 181.77 12.02 182.27 14.58 182.27 17.48 182.27 17.48 182.27 55.52 182.27 55.52 182.27 58.49 181.77 61.07 180.77 63.26 179.77 65.45 178.45 67.27 176.82 68.72ZM 153.51 68.72C 151.87 67.27 150.56 65.45 149.56 63.26 148.56 61.07 148.06 58.49 148.06 55.52 148.06 55.52 148.06 17.48 148.06 17.48 148.06 14.58 148.56 12.02 149.56 9.79 150.56 7.57 151.87 5.73 153.51 4.28 155.14 2.83 156.98 1.73 159.01 0.99 160.4 0.48 161.81 0.16 163.22 0 163.22 0 163.22 10.43 163.22 10.43 162.15 10.71 161.18 11.22 160.31 11.97 158.94 13.15 158.26 14.99 158.26 17.48 158.26 17.48 158.26 55.52 158.26 55.52 158.26 58.02 158.94 59.85 160.31 61.03 161.18 61.78 162.15 62.29 163.22 62.57 163.22 62.57 163.22 73 163.22 73 161.81 72.84 160.4 72.52 159.01 72.01 156.98 71.27 155.14 70.17 153.51 68.72ZM 139.65 68.12C 138.19 69.63 136.47 70.85 134.5 71.76 133.14 72.39 131.71 72.78 130.2 72.98 130.2 72.98 130.2 62.34 130.2 62.34 130.85 62.1 131.45 61.75 132 61.29 132.63 60.75 133.15 60.01 133.55 59.06 133.95 58.12 134.15 56.94 134.15 55.52 134.15 55.52 134.15 51.98 134.15 51.98 134.15 51.98 144.36 51.98 144.36 51.98 144.36 51.98 144.36 56.43 144.36 56.43 144.36 58.66 143.94 60.78 143.11 62.8 142.27 64.83 141.12 66.6 139.65 68.12ZM 134.15 17.68C 134.15 15.66 133.58 13.91 132.45 12.42 131.82 11.6 131.07 11.02 130.2 10.65 130.2 10.65 130.2 0.03 130.2 0.03 131.69 0.22 133.11 0.58 134.45 1.14 136.45 1.98 138.19 3.16 139.65 4.68 141.12 6.2 142.27 8.02 143.11 10.14 143.94 12.27 144.36 14.58 144.36 17.07 144.36 17.07 144.36 21.12 144.36 21.12 144.36 21.12 134.15 21.12 134.15 21.12 134.15 21.12 134.15 17.68 134.15 17.68ZM 116.84 69.53C 115.24 68.22 113.93 66.48 112.89 64.32 111.86 62.16 111.34 59.43 111.34 56.13 111.34 56.13 111.34 16.47 111.34 16.47 111.34 14.11 111.74 11.92 112.54 9.89 113.34 7.87 114.48 6.12 115.94 4.63 117.41 3.15 119.16 1.98 121.2 1.14 122.53 0.59 123.97 0.23 125.49 0.04 125.49 0.04 125.49 10.5 125.49 10.5 124.24 10.86 123.34 11.55 122.8 12.57 121.96 14.16 121.55 16.16 121.55 18.59 121.55 18.59 121.55 55.42 121.55 55.42 121.55 57.51 122 59.26 122.9 60.68 123.47 61.58 124.34 62.19 125.49 62.52 125.49 62.52 125.49 72.95 125.49 72.95 124.42 72.82 123.34 72.61 122.25 72.31 120.25 71.78 118.44 70.85 116.84 69.53ZM 76.93 0.48C 76.93 0.48 107.34 0.48 107.34 0.48 107.34 0.48 107.34 10.2 107.34 10.2 107.34 10.2 87.13 10.2 87.13 10.2 87.13 10.2 87.13 31.34 87.13 31.34 87.13 31.34 104.74 31.34 104.74 31.34 104.74 31.34 104.74 41.05 104.74 41.05 104.74 41.05 87.13 41.05 87.13 41.05 87.13 41.05 87.13 62.2 87.13 62.2 87.13 62.2 107.34 62.2 107.34 62.2 107.34 62.2 107.34 72.52 107.34 72.52 107.34 72.52 76.93 72.52 76.93 72.52 76.93 72.52 76.93 0.48 76.93 0.48ZM 61.12 40.45C 61.12 40.45 48.52 40.45 48.52 40.45 48.52 40.45 48.52 72.52 48.52 72.52 48.52 72.52 38.31 72.52 38.31 72.52 38.31 72.52 38.31 0.48 38.31 0.48 38.31 0.48 48.52 0.48 48.52 0.48 48.52 0.48 48.52 31.34 48.52 31.34 48.52 31.34 61.12 31.34 61.12 31.34 61.12 31.34 61.12 0.48 61.12 0.48 61.12 0.48 71.33 0.48 71.33 0.48 71.33 0.48 71.33 72.52 71.33 72.52 71.33 72.52 61.12 72.52 61.12 72.52 61.12 72.52 61.12 40.45 61.12 40.45ZM 22.01 72.52C 22.01 72.52 11.8 72.52 11.8 72.52 11.8 72.52 11.8 10.2 11.8 10.2 11.8 10.2-0 10.2-0 10.2-0 10.2-0 0.48-0 0.48-0 0.48 33.81 0.48 33.81 0.48 33.81 0.48 33.81 10.2 33.81 10.2 33.81 10.2 22.01 10.2 22.01 10.2 22.01 10.2 22.01 72.52 22.01 72.52Z" fill="#111111"/></svg>